<?xml version="1.0" encoding="UTF-8"?>
<svg xmlns="http://www.w3.org/2000/svg" viewBox="0 0 14 14" width="14" height="14">
  <title>Reach icon</title>
  <path d="M7.60796913,0.580703683 C7.60796913,0.812754261 7.46279669,1.01094008 7.25423911,1.10406817 L7.25423911,5.68042881 L8.26472105,3.46151732 C8.3371028,3.30142936 8.53380123,3.22754261 8.70350985,3.29604178 C8.87403634,3.36454096 8.9521432,3.54964266 8.87935252,3.70934579 L7.94615956,5.75854865 L11.2454588,2.65376581 C11.1681698,2.44903793 11.2143796,2.21236943 11.3885865,2.04843321 C11.6294501,1.8217702 12.0203933,1.8217702 12.2612569,2.04843321 C12.5021204,2.27509621 12.5021204,2.64299065 12.2612569,2.86965366 C12.0870499,3.03358988 11.835554,3.07707532 11.6179999,3.00434305 L8.21074144,6.21072018 L12.5990384,4.33969214 C12.6035367,4.12264981 12.7356231,3.9159978 12.9597203,3.82056075 C13.2701031,3.68818032 13.6356922,3.81786696 13.7763664,4.10995052 C13.9170405,4.40203408 13.7792289,4.74606927 13.4688462,4.8784497 C13.244749,4.97388675 12.9928442,4.9315558 12.8165926,4.79109401 L8.39558071,6.67597581 L10.9538871,6.69598681 C11.1387263,6.69752611 11.2871703,6.83952721 11.2855345,7.01308411 C11.2847167,7.18741067 11.1334102,7.32671798 10.9485709,7.32517867 L8.6311281,7.30709181 L12.9601292,8.84062672 C13.1265664,8.69246839 13.3727461,8.63589885 13.6013416,8.71671248 L13.6001148,8.715558 C13.9190852,8.82869709 14.0802062,9.16349643 13.9603878,9.46366135 C13.8401605,9.76382628 13.4843858,9.91583288 13.1654153,9.80269379 C12.9331394,9.72034085 12.7863313,9.5202309 12.768747,9.30203408 L7.97478511,7.60379329 L11.4953189,11.1130291 C11.713691,11.0483782 11.9615065,11.0991754 12.1291704,11.2661902 C12.363082,11.4993953 12.3520408,11.8669049 12.1042253,12.0870258 C11.8564098,12.3075316 11.4658755,12.2967565 11.2319639,12.0635514 C11.0618463,11.8938428 11.0229973,11.6537108 11.1092829,11.4501374 L7.9465685,8.29763606 L8.79429374,10.2918087 C8.86299506,10.453436 8.77957203,10.6362287 8.60822766,10.7008796 C8.56774295,10.7162727 8.5256225,10.7235844 8.48431992,10.7235844 C8.35182451,10.7235844 8.22628102,10.648928 8.17393716,10.5257834 L7.25464804,8.36344145 L7.25464804,12.8982408 C7.46075201,12.9925234 7.60387976,13.1895547 7.60387976,13.4192963 C7.60387976,13.7398571 7.32743873,14 6.98679468,14 C6.64615062,14 6.36970959,13.7398571 6.36970959,13.4192963 C6.36970959,13.1857064 6.51692671,12.9859813 6.72793791,12.8936229 L6.72793791,8.43386476 L5.78779304,10.4984607 C5.71541129,10.6585487 5.51871286,10.7324354 5.34900424,10.6639362 C5.30851953,10.6477735 5.273351,10.6246839 5.24431651,10.5973612 C5.15067006,10.508851 5.11795515,10.3722375 5.1735705,10.2506322 L6.11535112,8.18295767 L2.75634721,11.3439252 C2.83159152,11.5474986 2.78456383,11.782243 2.61199265,11.9446399 C2.37112909,12.1713029 1.98018585,12.1713029 1.73932229,11.9446399 C1.49845873,11.7179769 1.49845873,11.3500825 1.73932229,11.1234195 C1.91475602,10.9583288 2.16911449,10.9152281 2.38748654,10.9902694 L5.79229134,7.78620121 L1.40072292,9.65838373 C1.39458887,9.87350192 1.26291134,10.0774601 1.04044991,10.1725124 C0.730067156,10.3048928 0.36447798,10.1752062 0.223803845,9.88312259 C0.0831297094,9.59103903 0.220941289,9.24700385 0.531324047,9.11462342 C0.757056961,9.01841671 1.01141543,9.06228697 1.18766703,9.20505772 L5.69291978,7.28438703 L3.09903595,7.2639912 C2.91419668,7.2624519 2.76575275,7.1204508 2.7673885,6.9468939 C2.76779743,6.90571743 2.77679403,6.86608026 2.79233362,6.83029137 C2.8426328,6.71484332 2.96408692,6.63364486 3.10476106,6.63479934 L5.28561909,6.65173172 L1.04453928,5.14936778 C0.878511084,5.3002199 0.630286665,5.35832875 0.399646513,5.27674546 C0.0810850272,5.16360638 -0.0804448663,4.82880704 0.0397824469,4.52864211 C0.16000976,4.22847719 0.515784462,4.07647059 0.834754885,4.18960968 C1.06539504,4.27119296 1.21138535,4.46899395 1.23060536,4.68526663 L6.02702085,6.38504673 L2.50894067,2.87811985 C2.2893418,2.94507971 2.0390727,2.8946674 1.87018195,2.72611325 C1.63627031,2.49290819 1.64731159,2.12539857 1.89512707,1.90527763 C2.14294255,1.68515668 2.53347685,1.695547 2.7673885,1.92875206 C2.93627925,2.09692139 2.97553714,2.33512919 2.89170517,2.5375481 L6.1644235,5.79972512 L5.25822035,3.6677845 C5.18951903,3.50615723 5.27294206,3.32336449 5.44428643,3.25871358 C5.61603973,3.19367784 5.81028454,3.27256734 5.87898586,3.43380979 L6.72752897,5.43029137 L6.72752897,1.10406817 C6.51897139,1.01094008 6.37379895,0.812369434 6.37379895,0.580703683 C6.37379895,0.260142936 6.65023999,0 6.99088404,0 C7.33152809,0 7.60796913,0.260142936 7.60796913,0.580703683 Z" fill="#FFFFFF" fill-rule="evenodd"/>
</svg>
